%TF.GenerationSoftware,KiCad,Pcbnew,10.0.1*%
%TF.CreationDate,2026-04-20T15:10:01+05:45*%
%TF.ProjectId,project,70726f6a-6563-4742-9e6b-696361645f70,rev?*%
%TF.SameCoordinates,Original*%
%TF.FileFunction,AssemblyDrawing,Bot*%
%FSLAX46Y46*%
G04 Gerber Fmt 4.6, Leading zero omitted, Abs format (unit mm)*
G04 Created by KiCad (PCBNEW 10.0.1) date 2026-04-20 15:10:01*
%MOMM*%
%LPD*%
G01*
G04 APERTURE LIST*
%ADD10C,0.150000*%
%ADD11C,0.025400*%
%ADD12C,0.100000*%
G04 APERTURE END LIST*
D10*
X228087618Y-63861200D02*
X227944761Y-63908819D01*
X227944761Y-63908819D02*
X227706666Y-63908819D01*
X227706666Y-63908819D02*
X227611428Y-63861200D01*
X227611428Y-63861200D02*
X227563809Y-63813580D01*
X227563809Y-63813580D02*
X227516190Y-63718342D01*
X227516190Y-63718342D02*
X227516190Y-63623104D01*
X227516190Y-63623104D02*
X227563809Y-63527866D01*
X227563809Y-63527866D02*
X227611428Y-63480247D01*
X227611428Y-63480247D02*
X227706666Y-63432628D01*
X227706666Y-63432628D02*
X227897142Y-63385009D01*
X227897142Y-63385009D02*
X227992380Y-63337390D01*
X227992380Y-63337390D02*
X228039999Y-63289771D01*
X228039999Y-63289771D02*
X228087618Y-63194533D01*
X228087618Y-63194533D02*
X228087618Y-63099295D01*
X228087618Y-63099295D02*
X228039999Y-63004057D01*
X228039999Y-63004057D02*
X227992380Y-62956438D01*
X227992380Y-62956438D02*
X227897142Y-62908819D01*
X227897142Y-62908819D02*
X227659047Y-62908819D01*
X227659047Y-62908819D02*
X227516190Y-62956438D01*
X227182856Y-62908819D02*
X226944761Y-63908819D01*
X226944761Y-63908819D02*
X226754285Y-63194533D01*
X226754285Y-63194533D02*
X226563809Y-63908819D01*
X226563809Y-63908819D02*
X226325714Y-62908819D01*
X226182857Y-64004057D02*
X225420952Y-64004057D01*
X225182856Y-63908819D02*
X225182856Y-62908819D01*
X225182856Y-62908819D02*
X224801904Y-62908819D01*
X224801904Y-62908819D02*
X224706666Y-62956438D01*
X224706666Y-62956438D02*
X224659047Y-63004057D01*
X224659047Y-63004057D02*
X224611428Y-63099295D01*
X224611428Y-63099295D02*
X224611428Y-63242152D01*
X224611428Y-63242152D02*
X224659047Y-63337390D01*
X224659047Y-63337390D02*
X224706666Y-63385009D01*
X224706666Y-63385009D02*
X224801904Y-63432628D01*
X224801904Y-63432628D02*
X225182856Y-63432628D01*
X223754285Y-63242152D02*
X223754285Y-63908819D01*
X224182856Y-63242152D02*
X224182856Y-63765961D01*
X224182856Y-63765961D02*
X224135237Y-63861200D01*
X224135237Y-63861200D02*
X224039999Y-63908819D01*
X224039999Y-63908819D02*
X223897142Y-63908819D01*
X223897142Y-63908819D02*
X223801904Y-63861200D01*
X223801904Y-63861200D02*
X223754285Y-63813580D01*
X223325713Y-63861200D02*
X223230475Y-63908819D01*
X223230475Y-63908819D02*
X223039999Y-63908819D01*
X223039999Y-63908819D02*
X222944761Y-63861200D01*
X222944761Y-63861200D02*
X222897142Y-63765961D01*
X222897142Y-63765961D02*
X222897142Y-63718342D01*
X222897142Y-63718342D02*
X222944761Y-63623104D01*
X222944761Y-63623104D02*
X223039999Y-63575485D01*
X223039999Y-63575485D02*
X223182856Y-63575485D01*
X223182856Y-63575485D02*
X223278094Y-63527866D01*
X223278094Y-63527866D02*
X223325713Y-63432628D01*
X223325713Y-63432628D02*
X223325713Y-63385009D01*
X223325713Y-63385009D02*
X223278094Y-63289771D01*
X223278094Y-63289771D02*
X223182856Y-63242152D01*
X223182856Y-63242152D02*
X223039999Y-63242152D01*
X223039999Y-63242152D02*
X222944761Y-63289771D01*
X222468570Y-63908819D02*
X222468570Y-62908819D01*
X222039999Y-63908819D02*
X222039999Y-63385009D01*
X222039999Y-63385009D02*
X222087618Y-63289771D01*
X222087618Y-63289771D02*
X222182856Y-63242152D01*
X222182856Y-63242152D02*
X222325713Y-63242152D01*
X222325713Y-63242152D02*
X222420951Y-63289771D01*
X222420951Y-63289771D02*
X222468570Y-63337390D01*
X226373332Y-48113200D02*
X226230475Y-48160819D01*
X226230475Y-48160819D02*
X225992380Y-48160819D01*
X225992380Y-48160819D02*
X225897142Y-48113200D01*
X225897142Y-48113200D02*
X225849523Y-48065580D01*
X225849523Y-48065580D02*
X225801904Y-47970342D01*
X225801904Y-47970342D02*
X225801904Y-47875104D01*
X225801904Y-47875104D02*
X225849523Y-47779866D01*
X225849523Y-47779866D02*
X225897142Y-47732247D01*
X225897142Y-47732247D02*
X225992380Y-47684628D01*
X225992380Y-47684628D02*
X226182856Y-47637009D01*
X226182856Y-47637009D02*
X226278094Y-47589390D01*
X226278094Y-47589390D02*
X226325713Y-47541771D01*
X226325713Y-47541771D02*
X226373332Y-47446533D01*
X226373332Y-47446533D02*
X226373332Y-47351295D01*
X226373332Y-47351295D02*
X226325713Y-47256057D01*
X226325713Y-47256057D02*
X226278094Y-47208438D01*
X226278094Y-47208438D02*
X226182856Y-47160819D01*
X226182856Y-47160819D02*
X225944761Y-47160819D01*
X225944761Y-47160819D02*
X225801904Y-47208438D01*
X225468570Y-47160819D02*
X225230475Y-48160819D01*
X225230475Y-48160819D02*
X225039999Y-47446533D01*
X225039999Y-47446533D02*
X224849523Y-48160819D01*
X224849523Y-48160819D02*
X224611428Y-47160819D01*
X223706666Y-48160819D02*
X224278094Y-48160819D01*
X223992380Y-48160819D02*
X223992380Y-47160819D01*
X223992380Y-47160819D02*
X224087618Y-47303676D01*
X224087618Y-47303676D02*
X224182856Y-47398914D01*
X224182856Y-47398914D02*
X224278094Y-47446533D01*
X228087618Y-101861200D02*
X227944761Y-101908819D01*
X227944761Y-101908819D02*
X227706666Y-101908819D01*
X227706666Y-101908819D02*
X227611428Y-101861200D01*
X227611428Y-101861200D02*
X227563809Y-101813580D01*
X227563809Y-101813580D02*
X227516190Y-101718342D01*
X227516190Y-101718342D02*
X227516190Y-101623104D01*
X227516190Y-101623104D02*
X227563809Y-101527866D01*
X227563809Y-101527866D02*
X227611428Y-101480247D01*
X227611428Y-101480247D02*
X227706666Y-101432628D01*
X227706666Y-101432628D02*
X227897142Y-101385009D01*
X227897142Y-101385009D02*
X227992380Y-101337390D01*
X227992380Y-101337390D02*
X228039999Y-101289771D01*
X228039999Y-101289771D02*
X228087618Y-101194533D01*
X228087618Y-101194533D02*
X228087618Y-101099295D01*
X228087618Y-101099295D02*
X228039999Y-101004057D01*
X228039999Y-101004057D02*
X227992380Y-100956438D01*
X227992380Y-100956438D02*
X227897142Y-100908819D01*
X227897142Y-100908819D02*
X227659047Y-100908819D01*
X227659047Y-100908819D02*
X227516190Y-100956438D01*
X227182856Y-100908819D02*
X226944761Y-101908819D01*
X226944761Y-101908819D02*
X226754285Y-101194533D01*
X226754285Y-101194533D02*
X226563809Y-101908819D01*
X226563809Y-101908819D02*
X226325714Y-100908819D01*
X226182857Y-102004057D02*
X225420952Y-102004057D01*
X225182856Y-101908819D02*
X225182856Y-100908819D01*
X225182856Y-100908819D02*
X224801904Y-100908819D01*
X224801904Y-100908819D02*
X224706666Y-100956438D01*
X224706666Y-100956438D02*
X224659047Y-101004057D01*
X224659047Y-101004057D02*
X224611428Y-101099295D01*
X224611428Y-101099295D02*
X224611428Y-101242152D01*
X224611428Y-101242152D02*
X224659047Y-101337390D01*
X224659047Y-101337390D02*
X224706666Y-101385009D01*
X224706666Y-101385009D02*
X224801904Y-101432628D01*
X224801904Y-101432628D02*
X225182856Y-101432628D01*
X223754285Y-101242152D02*
X223754285Y-101908819D01*
X224182856Y-101242152D02*
X224182856Y-101765961D01*
X224182856Y-101765961D02*
X224135237Y-101861200D01*
X224135237Y-101861200D02*
X224039999Y-101908819D01*
X224039999Y-101908819D02*
X223897142Y-101908819D01*
X223897142Y-101908819D02*
X223801904Y-101861200D01*
X223801904Y-101861200D02*
X223754285Y-101813580D01*
X223325713Y-101861200D02*
X223230475Y-101908819D01*
X223230475Y-101908819D02*
X223039999Y-101908819D01*
X223039999Y-101908819D02*
X222944761Y-101861200D01*
X222944761Y-101861200D02*
X222897142Y-101765961D01*
X222897142Y-101765961D02*
X222897142Y-101718342D01*
X222897142Y-101718342D02*
X222944761Y-101623104D01*
X222944761Y-101623104D02*
X223039999Y-101575485D01*
X223039999Y-101575485D02*
X223182856Y-101575485D01*
X223182856Y-101575485D02*
X223278094Y-101527866D01*
X223278094Y-101527866D02*
X223325713Y-101432628D01*
X223325713Y-101432628D02*
X223325713Y-101385009D01*
X223325713Y-101385009D02*
X223278094Y-101289771D01*
X223278094Y-101289771D02*
X223182856Y-101242152D01*
X223182856Y-101242152D02*
X223039999Y-101242152D01*
X223039999Y-101242152D02*
X222944761Y-101289771D01*
X222468570Y-101908819D02*
X222468570Y-100908819D01*
X222039999Y-101908819D02*
X222039999Y-101385009D01*
X222039999Y-101385009D02*
X222087618Y-101289771D01*
X222087618Y-101289771D02*
X222182856Y-101242152D01*
X222182856Y-101242152D02*
X222325713Y-101242152D01*
X222325713Y-101242152D02*
X222420951Y-101289771D01*
X222420951Y-101289771D02*
X222468570Y-101337390D01*
X226373332Y-86113200D02*
X226230475Y-86160819D01*
X226230475Y-86160819D02*
X225992380Y-86160819D01*
X225992380Y-86160819D02*
X225897142Y-86113200D01*
X225897142Y-86113200D02*
X225849523Y-86065580D01*
X225849523Y-86065580D02*
X225801904Y-85970342D01*
X225801904Y-85970342D02*
X225801904Y-85875104D01*
X225801904Y-85875104D02*
X225849523Y-85779866D01*
X225849523Y-85779866D02*
X225897142Y-85732247D01*
X225897142Y-85732247D02*
X225992380Y-85684628D01*
X225992380Y-85684628D02*
X226182856Y-85637009D01*
X226182856Y-85637009D02*
X226278094Y-85589390D01*
X226278094Y-85589390D02*
X226325713Y-85541771D01*
X226325713Y-85541771D02*
X226373332Y-85446533D01*
X226373332Y-85446533D02*
X226373332Y-85351295D01*
X226373332Y-85351295D02*
X226325713Y-85256057D01*
X226325713Y-85256057D02*
X226278094Y-85208438D01*
X226278094Y-85208438D02*
X226182856Y-85160819D01*
X226182856Y-85160819D02*
X225944761Y-85160819D01*
X225944761Y-85160819D02*
X225801904Y-85208438D01*
X225468570Y-85160819D02*
X225230475Y-86160819D01*
X225230475Y-86160819D02*
X225039999Y-85446533D01*
X225039999Y-85446533D02*
X224849523Y-86160819D01*
X224849523Y-86160819D02*
X224611428Y-85160819D01*
X224325713Y-85160819D02*
X223706666Y-85160819D01*
X223706666Y-85160819D02*
X224039999Y-85541771D01*
X224039999Y-85541771D02*
X223897142Y-85541771D01*
X223897142Y-85541771D02*
X223801904Y-85589390D01*
X223801904Y-85589390D02*
X223754285Y-85637009D01*
X223754285Y-85637009D02*
X223706666Y-85732247D01*
X223706666Y-85732247D02*
X223706666Y-85970342D01*
X223706666Y-85970342D02*
X223754285Y-86065580D01*
X223754285Y-86065580D02*
X223801904Y-86113200D01*
X223801904Y-86113200D02*
X223897142Y-86160819D01*
X223897142Y-86160819D02*
X224182856Y-86160819D01*
X224182856Y-86160819D02*
X224278094Y-86113200D01*
X224278094Y-86113200D02*
X224325713Y-86065580D01*
X228087618Y-82771200D02*
X227944761Y-82818819D01*
X227944761Y-82818819D02*
X227706666Y-82818819D01*
X227706666Y-82818819D02*
X227611428Y-82771200D01*
X227611428Y-82771200D02*
X227563809Y-82723580D01*
X227563809Y-82723580D02*
X227516190Y-82628342D01*
X227516190Y-82628342D02*
X227516190Y-82533104D01*
X227516190Y-82533104D02*
X227563809Y-82437866D01*
X227563809Y-82437866D02*
X227611428Y-82390247D01*
X227611428Y-82390247D02*
X227706666Y-82342628D01*
X227706666Y-82342628D02*
X227897142Y-82295009D01*
X227897142Y-82295009D02*
X227992380Y-82247390D01*
X227992380Y-82247390D02*
X228039999Y-82199771D01*
X228039999Y-82199771D02*
X228087618Y-82104533D01*
X228087618Y-82104533D02*
X228087618Y-82009295D01*
X228087618Y-82009295D02*
X228039999Y-81914057D01*
X228039999Y-81914057D02*
X227992380Y-81866438D01*
X227992380Y-81866438D02*
X227897142Y-81818819D01*
X227897142Y-81818819D02*
X227659047Y-81818819D01*
X227659047Y-81818819D02*
X227516190Y-81866438D01*
X227182856Y-81818819D02*
X226944761Y-82818819D01*
X226944761Y-82818819D02*
X226754285Y-82104533D01*
X226754285Y-82104533D02*
X226563809Y-82818819D01*
X226563809Y-82818819D02*
X226325714Y-81818819D01*
X226182857Y-82914057D02*
X225420952Y-82914057D01*
X225182856Y-82818819D02*
X225182856Y-81818819D01*
X225182856Y-81818819D02*
X224801904Y-81818819D01*
X224801904Y-81818819D02*
X224706666Y-81866438D01*
X224706666Y-81866438D02*
X224659047Y-81914057D01*
X224659047Y-81914057D02*
X224611428Y-82009295D01*
X224611428Y-82009295D02*
X224611428Y-82152152D01*
X224611428Y-82152152D02*
X224659047Y-82247390D01*
X224659047Y-82247390D02*
X224706666Y-82295009D01*
X224706666Y-82295009D02*
X224801904Y-82342628D01*
X224801904Y-82342628D02*
X225182856Y-82342628D01*
X223754285Y-82152152D02*
X223754285Y-82818819D01*
X224182856Y-82152152D02*
X224182856Y-82675961D01*
X224182856Y-82675961D02*
X224135237Y-82771200D01*
X224135237Y-82771200D02*
X224039999Y-82818819D01*
X224039999Y-82818819D02*
X223897142Y-82818819D01*
X223897142Y-82818819D02*
X223801904Y-82771200D01*
X223801904Y-82771200D02*
X223754285Y-82723580D01*
X223325713Y-82771200D02*
X223230475Y-82818819D01*
X223230475Y-82818819D02*
X223039999Y-82818819D01*
X223039999Y-82818819D02*
X222944761Y-82771200D01*
X222944761Y-82771200D02*
X222897142Y-82675961D01*
X222897142Y-82675961D02*
X222897142Y-82628342D01*
X222897142Y-82628342D02*
X222944761Y-82533104D01*
X222944761Y-82533104D02*
X223039999Y-82485485D01*
X223039999Y-82485485D02*
X223182856Y-82485485D01*
X223182856Y-82485485D02*
X223278094Y-82437866D01*
X223278094Y-82437866D02*
X223325713Y-82342628D01*
X223325713Y-82342628D02*
X223325713Y-82295009D01*
X223325713Y-82295009D02*
X223278094Y-82199771D01*
X223278094Y-82199771D02*
X223182856Y-82152152D01*
X223182856Y-82152152D02*
X223039999Y-82152152D01*
X223039999Y-82152152D02*
X222944761Y-82199771D01*
X222468570Y-82818819D02*
X222468570Y-81818819D01*
X222039999Y-82818819D02*
X222039999Y-82295009D01*
X222039999Y-82295009D02*
X222087618Y-82199771D01*
X222087618Y-82199771D02*
X222182856Y-82152152D01*
X222182856Y-82152152D02*
X222325713Y-82152152D01*
X222325713Y-82152152D02*
X222420951Y-82199771D01*
X222420951Y-82199771D02*
X222468570Y-82247390D01*
X226373332Y-67023200D02*
X226230475Y-67070819D01*
X226230475Y-67070819D02*
X225992380Y-67070819D01*
X225992380Y-67070819D02*
X225897142Y-67023200D01*
X225897142Y-67023200D02*
X225849523Y-66975580D01*
X225849523Y-66975580D02*
X225801904Y-66880342D01*
X225801904Y-66880342D02*
X225801904Y-66785104D01*
X225801904Y-66785104D02*
X225849523Y-66689866D01*
X225849523Y-66689866D02*
X225897142Y-66642247D01*
X225897142Y-66642247D02*
X225992380Y-66594628D01*
X225992380Y-66594628D02*
X226182856Y-66547009D01*
X226182856Y-66547009D02*
X226278094Y-66499390D01*
X226278094Y-66499390D02*
X226325713Y-66451771D01*
X226325713Y-66451771D02*
X226373332Y-66356533D01*
X226373332Y-66356533D02*
X226373332Y-66261295D01*
X226373332Y-66261295D02*
X226325713Y-66166057D01*
X226325713Y-66166057D02*
X226278094Y-66118438D01*
X226278094Y-66118438D02*
X226182856Y-66070819D01*
X226182856Y-66070819D02*
X225944761Y-66070819D01*
X225944761Y-66070819D02*
X225801904Y-66118438D01*
X225468570Y-66070819D02*
X225230475Y-67070819D01*
X225230475Y-67070819D02*
X225039999Y-66356533D01*
X225039999Y-66356533D02*
X224849523Y-67070819D01*
X224849523Y-67070819D02*
X224611428Y-66070819D01*
X224278094Y-66166057D02*
X224230475Y-66118438D01*
X224230475Y-66118438D02*
X224135237Y-66070819D01*
X224135237Y-66070819D02*
X223897142Y-66070819D01*
X223897142Y-66070819D02*
X223801904Y-66118438D01*
X223801904Y-66118438D02*
X223754285Y-66166057D01*
X223754285Y-66166057D02*
X223706666Y-66261295D01*
X223706666Y-66261295D02*
X223706666Y-66356533D01*
X223706666Y-66356533D02*
X223754285Y-66499390D01*
X223754285Y-66499390D02*
X224325713Y-67070819D01*
X224325713Y-67070819D02*
X223706666Y-67070819D01*
%TO.C,U1*%
D11*
X196841000Y-72815081D02*
X196841000Y-55879124D01*
X196851000Y-55879124D02*
X196851508Y-55830101D01*
X196851508Y-55830101D02*
X196853287Y-55780825D01*
X196851508Y-72864104D02*
X196851000Y-72815081D01*
X196853287Y-55780825D02*
X196856335Y-55732057D01*
X196853287Y-72913380D02*
X196851508Y-72864104D01*
X196856335Y-55732057D02*
X196860399Y-55683036D01*
X196856335Y-72962148D02*
X196853287Y-72913380D01*
X196860399Y-55683036D02*
X196865732Y-55634268D01*
X196860399Y-73011169D02*
X196856335Y-72962148D01*
X196865732Y-55634268D02*
X196872336Y-55585500D01*
X196865732Y-73059937D02*
X196860399Y-73011169D01*
X196872336Y-55585500D02*
X196879956Y-55536985D01*
X196872336Y-73108705D02*
X196865732Y-73059937D01*
X196879956Y-55536985D02*
X196888847Y-55488725D01*
X196879956Y-73157220D02*
X196872336Y-73108705D01*
X196888847Y-55488725D02*
X196898752Y-55440720D01*
X196888847Y-73205480D02*
X196879956Y-73157220D01*
X196898752Y-55440720D02*
X196909928Y-55392713D01*
X196898752Y-73253485D02*
X196888847Y-73205480D01*
X196909928Y-55392713D02*
X196922375Y-55345216D01*
X196909928Y-73301492D02*
X196898752Y-73253485D01*
X196922375Y-55345216D02*
X196935836Y-55297972D01*
X196922375Y-73348989D02*
X196909928Y-73301492D01*
X196935836Y-55297972D02*
X196950568Y-55251236D01*
X196935836Y-73396233D02*
X196922375Y-73348989D01*
X196950568Y-55251236D02*
X196966316Y-55204753D01*
X196950568Y-73442969D02*
X196935836Y-73396233D01*
X196966316Y-55204753D02*
X196983080Y-55158525D01*
X196966316Y-73489452D02*
X196950568Y-73442969D01*
X196983080Y-55158525D02*
X197001115Y-55112805D01*
X196983080Y-73535680D02*
X196966316Y-73489452D01*
X197001115Y-55112805D02*
X197020164Y-55067593D01*
X197001115Y-73581400D02*
X196983080Y-73535680D01*
X197020164Y-55067593D02*
X197040231Y-55022889D01*
X197020164Y-73626612D02*
X197001115Y-73581400D01*
X197040231Y-55022889D02*
X197061567Y-54978440D01*
X197040231Y-73671316D02*
X197020164Y-73626612D01*
X197061567Y-54978440D02*
X197083664Y-54934752D01*
X197061567Y-73715765D02*
X197040231Y-73671316D01*
X197083664Y-54934752D02*
X197107032Y-54891572D01*
X197083664Y-73759453D02*
X197061567Y-73715765D01*
X197107032Y-54891572D02*
X197131416Y-54848900D01*
X197107032Y-73802633D02*
X197083664Y-73759453D01*
X197131416Y-54848900D02*
X197156816Y-54806989D01*
X197131416Y-73845305D02*
X197107032Y-73802633D01*
X197156816Y-54806989D02*
X197183232Y-54765588D01*
X197156816Y-73887216D02*
X197131416Y-73845305D01*
X197183232Y-54765588D02*
X197210664Y-54724693D01*
X197183232Y-73928617D02*
X197156816Y-73887216D01*
X197210664Y-54724693D02*
X197239112Y-54684816D01*
X197210664Y-73969512D02*
X197183232Y-73928617D01*
X197239112Y-54684816D02*
X197268323Y-54645445D01*
X197239112Y-74009389D02*
X197210664Y-73969512D01*
X197268323Y-54645445D02*
X197298803Y-54606837D01*
X197268323Y-74048760D02*
X197239112Y-74009389D01*
X197298803Y-54606837D02*
X197329791Y-54568737D01*
X197298803Y-74087368D02*
X197268323Y-74048760D01*
X197329791Y-54568737D02*
X197362048Y-54531653D01*
X197329791Y-74125468D02*
X197298803Y-74087368D01*
X197362048Y-54531653D02*
X197395068Y-54495332D01*
X197362048Y-74162552D02*
X197329791Y-74125468D01*
X197395068Y-54495332D02*
X197428851Y-54459772D01*
X197395068Y-74198873D02*
X197362048Y-74162552D01*
X197428851Y-54459772D02*
X197463648Y-54424973D01*
X197428851Y-74234433D02*
X197395068Y-74198873D01*
X197463648Y-54424973D02*
X197499208Y-54391192D01*
X197463648Y-74269232D02*
X197428851Y-74234433D01*
X197499208Y-54391192D02*
X197535531Y-54358172D01*
X197499208Y-74303013D02*
X197463648Y-74269232D01*
X197535531Y-54358172D02*
X197572615Y-54325913D01*
X197535531Y-74336033D02*
X197499208Y-74303013D01*
X197572615Y-54325913D02*
X197610715Y-54294925D01*
X197572615Y-74368292D02*
X197535531Y-74336033D01*
X197610715Y-54294925D02*
X197649323Y-54264445D01*
X197610715Y-74399280D02*
X197572615Y-74368292D01*
X197649323Y-54264445D02*
X197688692Y-54235236D01*
X197649323Y-74429760D02*
X197610715Y-74399280D01*
X197688692Y-54235236D02*
X197728571Y-54206788D01*
X197688692Y-74458969D02*
X197649323Y-74429760D01*
X197728571Y-54206788D02*
X197769464Y-54179356D01*
X197728571Y-74487417D02*
X197688692Y-74458969D01*
X197769464Y-54179356D02*
X197810867Y-54152940D01*
X197769464Y-74514849D02*
X197728571Y-74487417D01*
X197810867Y-54152940D02*
X197852776Y-54127540D01*
X197810867Y-74541265D02*
X197769464Y-74514849D01*
X197852776Y-54127540D02*
X197895448Y-54103156D01*
X197852776Y-74566665D02*
X197810867Y-74541265D01*
X197895448Y-54103156D02*
X197938628Y-54079788D01*
X197895448Y-74591049D02*
X197852776Y-74566665D01*
X197938628Y-54079788D02*
X197982316Y-54057689D01*
X197938628Y-74614417D02*
X197895448Y-74591049D01*
X197982316Y-54057689D02*
X198026767Y-54036353D01*
X197982316Y-74636516D02*
X197938628Y-74614417D01*
X198026767Y-54036353D02*
X198071471Y-54016288D01*
X198026767Y-74657852D02*
X197982316Y-74636516D01*
X198071471Y-54016288D02*
X198116683Y-53997237D01*
X198071471Y-74677917D02*
X198026767Y-74657852D01*
X198116683Y-53997237D02*
X198162403Y-53979204D01*
X198116683Y-74696968D02*
X198071471Y-74677917D01*
X198162403Y-53979204D02*
X198208631Y-53962440D01*
X198162403Y-74715001D02*
X198116683Y-74696968D01*
X198208631Y-53962440D02*
X198255112Y-53946692D01*
X198208631Y-74731765D02*
X198162403Y-74715001D01*
X198255112Y-53946692D02*
X198301848Y-53931960D01*
X198255112Y-74747513D02*
X198208631Y-74731765D01*
X198301848Y-53931960D02*
X198349092Y-53918497D01*
X198301848Y-74762245D02*
X198255112Y-74747513D01*
X198349092Y-53918497D02*
X198396591Y-53906052D01*
X198349092Y-74775708D02*
X198301848Y-74762245D01*
X198396591Y-53906052D02*
X198444596Y-53894876D01*
X198396591Y-74788153D02*
X198349092Y-74775708D01*
X198444596Y-53894876D02*
X198492603Y-53884969D01*
X198444596Y-74799329D02*
X198396591Y-74788153D01*
X198492603Y-53884969D02*
X198540863Y-53876080D01*
X198492603Y-74809236D02*
X198444596Y-74799329D01*
X198540863Y-53876080D02*
X198589376Y-53868460D01*
X198540863Y-74818125D02*
X198492603Y-74809236D01*
X198589376Y-53868460D02*
X198638144Y-53861856D01*
X198589376Y-74825745D02*
X198540863Y-74818125D01*
X198638144Y-53861856D02*
X198686912Y-53856521D01*
X198638144Y-74832349D02*
X198589376Y-74825745D01*
X198686912Y-53856521D02*
X198735935Y-53852457D01*
X198686912Y-74837684D02*
X198638144Y-74832349D01*
X198735935Y-53852457D02*
X198784703Y-53849409D01*
X198735935Y-74841748D02*
X198686912Y-74837684D01*
X198784703Y-53849409D02*
X198833979Y-53847632D01*
X198784703Y-74844796D02*
X198735935Y-74841748D01*
X198833979Y-53847632D02*
X198883000Y-53847124D01*
X198833979Y-74846573D02*
X198784703Y-74844796D01*
X198883000Y-53847124D02*
X212599000Y-53847124D01*
X198883000Y-74847081D02*
X198833979Y-74846573D01*
X212599000Y-53847124D02*
X212648023Y-53847632D01*
X212599000Y-74847081D02*
X198883000Y-74847081D01*
X212648023Y-53847632D02*
X212697299Y-53849409D01*
X212648023Y-74846573D02*
X212599000Y-74847081D01*
X212697299Y-53849409D02*
X212746067Y-53852457D01*
X212697299Y-74844796D02*
X212648023Y-74846573D01*
X212746067Y-53852457D02*
X212795088Y-53856521D01*
X212746067Y-74841748D02*
X212697299Y-74844796D01*
X212795088Y-53856521D02*
X212843856Y-53861856D01*
X212795088Y-74837684D02*
X212746067Y-74841748D01*
X212843856Y-53861856D02*
X212892624Y-53868460D01*
X212843856Y-74832349D02*
X212795088Y-74837684D01*
X212892624Y-53868460D02*
X212941139Y-53876080D01*
X212892624Y-74825745D02*
X212843856Y-74832349D01*
X212941139Y-53876080D02*
X212989399Y-53884969D01*
X212941139Y-74818125D02*
X212892624Y-74825745D01*
X212989399Y-53884969D02*
X213037404Y-53894876D01*
X212989399Y-74809236D02*
X212941139Y-74818125D01*
X213037404Y-53894876D02*
X213085411Y-53906052D01*
X213037404Y-74799329D02*
X212989399Y-74809236D01*
X213085411Y-53906052D02*
X213132908Y-53918497D01*
X213085411Y-74788153D02*
X213037404Y-74799329D01*
X213132908Y-53918497D02*
X213180152Y-53931960D01*
X213132908Y-74775708D02*
X213085411Y-74788153D01*
X213180152Y-53931960D02*
X213226888Y-53946692D01*
X213180152Y-74762245D02*
X213132908Y-74775708D01*
X213226888Y-53946692D02*
X213273371Y-53962440D01*
X213226888Y-74747513D02*
X213180152Y-74762245D01*
X213273371Y-53962440D02*
X213319599Y-53979204D01*
X213273371Y-74731765D02*
X213226888Y-74747513D01*
X213319599Y-53979204D02*
X213365319Y-53997237D01*
X213319599Y-74715001D02*
X213273371Y-74731765D01*
X213365319Y-53997237D02*
X213410531Y-54016288D01*
X213365319Y-74696968D02*
X213319599Y-74715001D01*
X213410531Y-54016288D02*
X213455235Y-54036353D01*
X213410531Y-74677917D02*
X213365319Y-74696968D01*
X213455235Y-54036353D02*
X213499684Y-54057689D01*
X213455235Y-74657852D02*
X213410531Y-74677917D01*
X213499684Y-54057689D02*
X213543372Y-54079788D01*
X213499684Y-74636516D02*
X213455235Y-74657852D01*
X213543372Y-54079788D02*
X213586552Y-54103156D01*
X213543372Y-74614417D02*
X213499684Y-74636516D01*
X213586552Y-54103156D02*
X213629224Y-54127540D01*
X213586552Y-74591049D02*
X213543372Y-74614417D01*
X213629224Y-54127540D02*
X213671135Y-54152940D01*
X213629224Y-74566665D02*
X213586552Y-74591049D01*
X213671135Y-54152940D02*
X213712536Y-54179356D01*
X213671135Y-74541265D02*
X213629224Y-74566665D01*
X213712536Y-54179356D02*
X213753431Y-54206788D01*
X213712536Y-74514849D02*
X213671135Y-74541265D01*
X213753431Y-54206788D02*
X213793308Y-54235236D01*
X213753431Y-74487417D02*
X213712536Y-74514849D01*
X213793308Y-54235236D02*
X213832679Y-54264445D01*
X213793308Y-74458969D02*
X213753431Y-74487417D01*
X213832679Y-54264445D02*
X213871287Y-54294925D01*
X213832679Y-74429760D02*
X213793308Y-74458969D01*
X213871287Y-54294925D02*
X213909387Y-54325913D01*
X213871287Y-74399280D02*
X213832679Y-74429760D01*
X213909387Y-54325913D02*
X213946471Y-54358172D01*
X213909387Y-74368292D02*
X213871287Y-74399280D01*
X213946471Y-54358172D02*
X213982792Y-54391192D01*
X213946471Y-74336033D02*
X213909387Y-74368292D01*
X213982792Y-54391192D02*
X214018352Y-54424973D01*
X213982792Y-74303013D02*
X213946471Y-74336033D01*
X214018352Y-54424973D02*
X214053151Y-54459772D01*
X214018352Y-74269232D02*
X213982792Y-74303013D01*
X214053151Y-54459772D02*
X214086932Y-54495332D01*
X214053151Y-74234433D02*
X214018352Y-74269232D01*
X214086932Y-54495332D02*
X214119952Y-54531653D01*
X214086932Y-74198873D02*
X214053151Y-74234433D01*
X214119952Y-54531653D02*
X214152211Y-54568737D01*
X214119952Y-74162552D02*
X214086932Y-74198873D01*
X214152211Y-54568737D02*
X214183199Y-54606837D01*
X214152211Y-74125468D02*
X214119952Y-74162552D01*
X214183199Y-54606837D02*
X214213679Y-54645445D01*
X214183199Y-74087368D02*
X214152211Y-74125468D01*
X214213679Y-54645445D02*
X214242888Y-54684816D01*
X214213679Y-74048760D02*
X214183199Y-74087368D01*
X214242888Y-54684816D02*
X214271336Y-54724693D01*
X214242888Y-74009389D02*
X214213679Y-74048760D01*
X214271336Y-54724693D02*
X214298768Y-54765588D01*
X214271336Y-73969512D02*
X214242888Y-74009389D01*
X214298768Y-54765588D02*
X214325184Y-54806989D01*
X214298768Y-73928617D02*
X214271336Y-73969512D01*
X214325184Y-54806989D02*
X214350584Y-54848900D01*
X214325184Y-73887216D02*
X214298768Y-73928617D01*
X214350584Y-54848900D02*
X214374968Y-54891572D01*
X214350584Y-73845305D02*
X214325184Y-73887216D01*
X214374968Y-54891572D02*
X214398336Y-54934752D01*
X214374968Y-73802633D02*
X214350584Y-73845305D01*
X214398336Y-54934752D02*
X214420435Y-54978440D01*
X214398336Y-73759453D02*
X214374968Y-73802633D01*
X214420435Y-54978440D02*
X214441771Y-55022889D01*
X214420435Y-73715765D02*
X214398336Y-73759453D01*
X214441771Y-55022889D02*
X214461836Y-55067593D01*
X214441771Y-73671316D02*
X214420435Y-73715765D01*
X214461836Y-55067593D02*
X214480887Y-55112805D01*
X214461836Y-73626612D02*
X214441771Y-73671316D01*
X214480887Y-55112805D02*
X214498920Y-55158525D01*
X214480887Y-73581400D02*
X214461836Y-73626612D01*
X214498920Y-55158525D02*
X214515684Y-55204753D01*
X214498920Y-73535680D02*
X214480887Y-73581400D01*
X214515684Y-55204753D02*
X214531432Y-55251236D01*
X214515684Y-73489452D02*
X214498920Y-73535680D01*
X214531432Y-55251236D02*
X214546164Y-55297972D01*
X214531432Y-73442969D02*
X214515684Y-73489452D01*
X214546164Y-55297972D02*
X214559627Y-55345216D01*
X214546164Y-73396233D02*
X214531432Y-73442969D01*
X214559627Y-55345216D02*
X214572072Y-55392713D01*
X214559627Y-73348989D02*
X214546164Y-73396233D01*
X214572072Y-55392713D02*
X214583248Y-55440720D01*
X214572072Y-73301492D02*
X214559627Y-73348989D01*
X214583248Y-55440720D02*
X214593155Y-55488725D01*
X214583248Y-73253485D02*
X214572072Y-73301492D01*
X214593155Y-55488725D02*
X214602044Y-55536985D01*
X214593155Y-73205480D02*
X214583248Y-73253485D01*
X214602044Y-55536985D02*
X214609664Y-55585500D01*
X214602044Y-73157220D02*
X214593155Y-73205480D01*
X214609664Y-55585500D02*
X214616268Y-55634268D01*
X214609664Y-73108705D02*
X214602044Y-73157220D01*
X214616268Y-55634268D02*
X214621603Y-55683036D01*
X214616268Y-73059937D02*
X214609664Y-73108705D01*
X214621603Y-55683036D02*
X214625667Y-55732057D01*
X214621603Y-73011169D02*
X214616268Y-73059937D01*
X214625667Y-55732057D02*
X214628715Y-55780825D01*
X214625667Y-72962148D02*
X214621603Y-73011169D01*
X214628715Y-55780825D02*
X214630492Y-55830101D01*
X214628715Y-72913380D02*
X214625667Y-72962148D01*
X214630492Y-72864104D02*
X214628715Y-72913380D01*
X214631000Y-72815081D02*
X214630492Y-72864104D01*
X214641000Y-55879124D02*
X214641000Y-72815081D01*
%TO.C,SW1*%
D12*
X218690000Y-49230000D02*
X218690000Y-61930000D01*
X218690000Y-61930000D02*
X231390000Y-61930000D01*
X231390000Y-49230000D02*
X218690000Y-49230000D01*
X231390000Y-61930000D02*
X231390000Y-49230000D01*
%TO.C,SW3*%
X218690000Y-87230000D02*
X218690000Y-99930000D01*
X218690000Y-99930000D02*
X231390000Y-99930000D01*
X231390000Y-87230000D02*
X218690000Y-87230000D01*
X231390000Y-99930000D02*
X231390000Y-87230000D01*
%TO.C,SW2*%
X218690000Y-68140000D02*
X218690000Y-80840000D01*
X218690000Y-80840000D02*
X231390000Y-80840000D01*
X231390000Y-68140000D02*
X218690000Y-68140000D01*
X231390000Y-80840000D02*
X231390000Y-68140000D01*
%TD*%
M02*
