%TF.GenerationSoftware,KiCad,Pcbnew,10.0.1*%
%TF.CreationDate,2026-04-20T15:10:00+05:45*%
%TF.ProjectId,project,70726f6a-6563-4742-9e6b-696361645f70,rev?*%
%TF.SameCoordinates,Original*%
%TF.FileFunction,Legend,Bot*%
%TF.FilePolarity,Positive*%
%FSLAX46Y46*%
G04 Gerber Fmt 4.6, Leading zero omitted, Abs format (unit mm)*
G04 Created by KiCad (PCBNEW 10.0.1) date 2026-04-20 15:10:00*
%MOMM*%
%LPD*%
G01*
G04 APERTURE LIST*
%ADD10C,0.101600*%
%ADD11C,0.150000*%
%ADD12C,0.127000*%
%ADD13C,0.120000*%
%ADD14C,0.254000*%
%ADD15C,0.025400*%
G04 APERTURE END LIST*
D10*
X206418333Y-66399515D02*
X206418333Y-67119182D01*
X206418333Y-67119182D02*
X206376000Y-67203848D01*
X206376000Y-67203848D02*
X206333666Y-67246182D01*
X206333666Y-67246182D02*
X206249000Y-67288515D01*
X206249000Y-67288515D02*
X206079666Y-67288515D01*
X206079666Y-67288515D02*
X205995000Y-67246182D01*
X205995000Y-67246182D02*
X205952666Y-67203848D01*
X205952666Y-67203848D02*
X205910333Y-67119182D01*
X205910333Y-67119182D02*
X205910333Y-66399515D01*
X205021333Y-67288515D02*
X205529333Y-67288515D01*
X205275333Y-67288515D02*
X205275333Y-66399515D01*
X205275333Y-66399515D02*
X205360000Y-66526515D01*
X205360000Y-66526515D02*
X205444667Y-66611182D01*
X205444667Y-66611182D02*
X205529333Y-66653515D01*
D11*
X210502904Y-63249730D02*
X210360047Y-63297349D01*
X210360047Y-63297349D02*
X210121952Y-63297349D01*
X210121952Y-63297349D02*
X210026714Y-63249730D01*
X210026714Y-63249730D02*
X209979095Y-63202110D01*
X209979095Y-63202110D02*
X209931476Y-63106872D01*
X209931476Y-63106872D02*
X209931476Y-63011634D01*
X209931476Y-63011634D02*
X209979095Y-62916396D01*
X209979095Y-62916396D02*
X210026714Y-62868777D01*
X210026714Y-62868777D02*
X210121952Y-62821158D01*
X210121952Y-62821158D02*
X210312428Y-62773539D01*
X210312428Y-62773539D02*
X210407666Y-62725920D01*
X210407666Y-62725920D02*
X210455285Y-62678301D01*
X210455285Y-62678301D02*
X210502904Y-62583063D01*
X210502904Y-62583063D02*
X210502904Y-62487825D01*
X210502904Y-62487825D02*
X210455285Y-62392587D01*
X210455285Y-62392587D02*
X210407666Y-62344968D01*
X210407666Y-62344968D02*
X210312428Y-62297349D01*
X210312428Y-62297349D02*
X210074333Y-62297349D01*
X210074333Y-62297349D02*
X209931476Y-62344968D01*
X209121952Y-63249730D02*
X209217190Y-63297349D01*
X209217190Y-63297349D02*
X209407666Y-63297349D01*
X209407666Y-63297349D02*
X209502904Y-63249730D01*
X209502904Y-63249730D02*
X209550523Y-63154491D01*
X209550523Y-63154491D02*
X209550523Y-62773539D01*
X209550523Y-62773539D02*
X209502904Y-62678301D01*
X209502904Y-62678301D02*
X209407666Y-62630682D01*
X209407666Y-62630682D02*
X209217190Y-62630682D01*
X209217190Y-62630682D02*
X209121952Y-62678301D01*
X209121952Y-62678301D02*
X209074333Y-62773539D01*
X209074333Y-62773539D02*
X209074333Y-62868777D01*
X209074333Y-62868777D02*
X209550523Y-62964015D01*
X208264809Y-63249730D02*
X208360047Y-63297349D01*
X208360047Y-63297349D02*
X208550523Y-63297349D01*
X208550523Y-63297349D02*
X208645761Y-63249730D01*
X208645761Y-63249730D02*
X208693380Y-63154491D01*
X208693380Y-63154491D02*
X208693380Y-62773539D01*
X208693380Y-62773539D02*
X208645761Y-62678301D01*
X208645761Y-62678301D02*
X208550523Y-62630682D01*
X208550523Y-62630682D02*
X208360047Y-62630682D01*
X208360047Y-62630682D02*
X208264809Y-62678301D01*
X208264809Y-62678301D02*
X208217190Y-62773539D01*
X208217190Y-62773539D02*
X208217190Y-62868777D01*
X208217190Y-62868777D02*
X208693380Y-62964015D01*
X207407666Y-63249730D02*
X207502904Y-63297349D01*
X207502904Y-63297349D02*
X207693380Y-63297349D01*
X207693380Y-63297349D02*
X207788618Y-63249730D01*
X207788618Y-63249730D02*
X207836237Y-63154491D01*
X207836237Y-63154491D02*
X207836237Y-62773539D01*
X207836237Y-62773539D02*
X207788618Y-62678301D01*
X207788618Y-62678301D02*
X207693380Y-62630682D01*
X207693380Y-62630682D02*
X207502904Y-62630682D01*
X207502904Y-62630682D02*
X207407666Y-62678301D01*
X207407666Y-62678301D02*
X207360047Y-62773539D01*
X207360047Y-62773539D02*
X207360047Y-62868777D01*
X207360047Y-62868777D02*
X207836237Y-62964015D01*
X206502904Y-63297349D02*
X206502904Y-62297349D01*
X206502904Y-63249730D02*
X206598142Y-63297349D01*
X206598142Y-63297349D02*
X206788618Y-63297349D01*
X206788618Y-63297349D02*
X206883856Y-63249730D01*
X206883856Y-63249730D02*
X206931475Y-63202110D01*
X206931475Y-63202110D02*
X206979094Y-63106872D01*
X206979094Y-63106872D02*
X206979094Y-62821158D01*
X206979094Y-62821158D02*
X206931475Y-62725920D01*
X206931475Y-62725920D02*
X206883856Y-62678301D01*
X206883856Y-62678301D02*
X206788618Y-62630682D01*
X206788618Y-62630682D02*
X206598142Y-62630682D01*
X206598142Y-62630682D02*
X206502904Y-62678301D01*
X205312427Y-63249730D02*
X205169570Y-63297349D01*
X205169570Y-63297349D02*
X204931475Y-63297349D01*
X204931475Y-63297349D02*
X204836237Y-63249730D01*
X204836237Y-63249730D02*
X204788618Y-63202110D01*
X204788618Y-63202110D02*
X204740999Y-63106872D01*
X204740999Y-63106872D02*
X204740999Y-63011634D01*
X204740999Y-63011634D02*
X204788618Y-62916396D01*
X204788618Y-62916396D02*
X204836237Y-62868777D01*
X204836237Y-62868777D02*
X204931475Y-62821158D01*
X204931475Y-62821158D02*
X205121951Y-62773539D01*
X205121951Y-62773539D02*
X205217189Y-62725920D01*
X205217189Y-62725920D02*
X205264808Y-62678301D01*
X205264808Y-62678301D02*
X205312427Y-62583063D01*
X205312427Y-62583063D02*
X205312427Y-62487825D01*
X205312427Y-62487825D02*
X205264808Y-62392587D01*
X205264808Y-62392587D02*
X205217189Y-62344968D01*
X205217189Y-62344968D02*
X205121951Y-62297349D01*
X205121951Y-62297349D02*
X204883856Y-62297349D01*
X204883856Y-62297349D02*
X204740999Y-62344968D01*
X204455284Y-62630682D02*
X204074332Y-62630682D01*
X204312427Y-62297349D02*
X204312427Y-63154491D01*
X204312427Y-63154491D02*
X204264808Y-63249730D01*
X204264808Y-63249730D02*
X204169570Y-63297349D01*
X204169570Y-63297349D02*
X204074332Y-63297349D01*
X203312427Y-62630682D02*
X203312427Y-63297349D01*
X203740998Y-62630682D02*
X203740998Y-63154491D01*
X203740998Y-63154491D02*
X203693379Y-63249730D01*
X203693379Y-63249730D02*
X203598141Y-63297349D01*
X203598141Y-63297349D02*
X203455284Y-63297349D01*
X203455284Y-63297349D02*
X203360046Y-63249730D01*
X203360046Y-63249730D02*
X203312427Y-63202110D01*
X202407665Y-63297349D02*
X202407665Y-62297349D01*
X202407665Y-63249730D02*
X202502903Y-63297349D01*
X202502903Y-63297349D02*
X202693379Y-63297349D01*
X202693379Y-63297349D02*
X202788617Y-63249730D01*
X202788617Y-63249730D02*
X202836236Y-63202110D01*
X202836236Y-63202110D02*
X202883855Y-63106872D01*
X202883855Y-63106872D02*
X202883855Y-62821158D01*
X202883855Y-62821158D02*
X202836236Y-62725920D01*
X202836236Y-62725920D02*
X202788617Y-62678301D01*
X202788617Y-62678301D02*
X202693379Y-62630682D01*
X202693379Y-62630682D02*
X202502903Y-62630682D01*
X202502903Y-62630682D02*
X202407665Y-62678301D01*
X201931474Y-63297349D02*
X201931474Y-62630682D01*
X201931474Y-62297349D02*
X201979093Y-62344968D01*
X201979093Y-62344968D02*
X201931474Y-62392587D01*
X201931474Y-62392587D02*
X201883855Y-62344968D01*
X201883855Y-62344968D02*
X201931474Y-62297349D01*
X201931474Y-62297349D02*
X201931474Y-62392587D01*
X201312427Y-63297349D02*
X201407665Y-63249730D01*
X201407665Y-63249730D02*
X201455284Y-63202110D01*
X201455284Y-63202110D02*
X201502903Y-63106872D01*
X201502903Y-63106872D02*
X201502903Y-62821158D01*
X201502903Y-62821158D02*
X201455284Y-62725920D01*
X201455284Y-62725920D02*
X201407665Y-62678301D01*
X201407665Y-62678301D02*
X201312427Y-62630682D01*
X201312427Y-62630682D02*
X201169570Y-62630682D01*
X201169570Y-62630682D02*
X201074332Y-62678301D01*
X201074332Y-62678301D02*
X201026713Y-62725920D01*
X201026713Y-62725920D02*
X200979094Y-62821158D01*
X200979094Y-62821158D02*
X200979094Y-63106872D01*
X200979094Y-63106872D02*
X201026713Y-63202110D01*
X201026713Y-63202110D02*
X201074332Y-63249730D01*
X201074332Y-63249730D02*
X201169570Y-63297349D01*
X201169570Y-63297349D02*
X201312427Y-63297349D01*
X207264808Y-64297349D02*
X206598142Y-65297349D01*
X206598142Y-64297349D02*
X207264808Y-65297349D01*
X206217189Y-65297349D02*
X206217189Y-64297349D01*
X205788618Y-65011634D02*
X205312428Y-65011634D01*
X205883856Y-65297349D02*
X205550523Y-64297349D01*
X205550523Y-64297349D02*
X205217190Y-65297349D01*
X204693380Y-64297349D02*
X204502904Y-64297349D01*
X204502904Y-64297349D02*
X204407666Y-64344968D01*
X204407666Y-64344968D02*
X204312428Y-64440206D01*
X204312428Y-64440206D02*
X204264809Y-64630682D01*
X204264809Y-64630682D02*
X204264809Y-64964015D01*
X204264809Y-64964015D02*
X204312428Y-65154491D01*
X204312428Y-65154491D02*
X204407666Y-65249730D01*
X204407666Y-65249730D02*
X204502904Y-65297349D01*
X204502904Y-65297349D02*
X204693380Y-65297349D01*
X204693380Y-65297349D02*
X204788618Y-65249730D01*
X204788618Y-65249730D02*
X204883856Y-65154491D01*
X204883856Y-65154491D02*
X204931475Y-64964015D01*
X204931475Y-64964015D02*
X204931475Y-64630682D01*
X204931475Y-64630682D02*
X204883856Y-64440206D01*
X204883856Y-64440206D02*
X204788618Y-64344968D01*
X204788618Y-64344968D02*
X204693380Y-64297349D01*
X226373332Y-48113200D02*
X226230475Y-48160819D01*
X226230475Y-48160819D02*
X225992380Y-48160819D01*
X225992380Y-48160819D02*
X225897142Y-48113200D01*
X225897142Y-48113200D02*
X225849523Y-48065580D01*
X225849523Y-48065580D02*
X225801904Y-47970342D01*
X225801904Y-47970342D02*
X225801904Y-47875104D01*
X225801904Y-47875104D02*
X225849523Y-47779866D01*
X225849523Y-47779866D02*
X225897142Y-47732247D01*
X225897142Y-47732247D02*
X225992380Y-47684628D01*
X225992380Y-47684628D02*
X226182856Y-47637009D01*
X226182856Y-47637009D02*
X226278094Y-47589390D01*
X226278094Y-47589390D02*
X226325713Y-47541771D01*
X226325713Y-47541771D02*
X226373332Y-47446533D01*
X226373332Y-47446533D02*
X226373332Y-47351295D01*
X226373332Y-47351295D02*
X226325713Y-47256057D01*
X226325713Y-47256057D02*
X226278094Y-47208438D01*
X226278094Y-47208438D02*
X226182856Y-47160819D01*
X226182856Y-47160819D02*
X225944761Y-47160819D01*
X225944761Y-47160819D02*
X225801904Y-47208438D01*
X225468570Y-47160819D02*
X225230475Y-48160819D01*
X225230475Y-48160819D02*
X225039999Y-47446533D01*
X225039999Y-47446533D02*
X224849523Y-48160819D01*
X224849523Y-48160819D02*
X224611428Y-47160819D01*
X223706666Y-48160819D02*
X224278094Y-48160819D01*
X223992380Y-48160819D02*
X223992380Y-47160819D01*
X223992380Y-47160819D02*
X224087618Y-47303676D01*
X224087618Y-47303676D02*
X224182856Y-47398914D01*
X224182856Y-47398914D02*
X224278094Y-47446533D01*
X226373332Y-86113200D02*
X226230475Y-86160819D01*
X226230475Y-86160819D02*
X225992380Y-86160819D01*
X225992380Y-86160819D02*
X225897142Y-86113200D01*
X225897142Y-86113200D02*
X225849523Y-86065580D01*
X225849523Y-86065580D02*
X225801904Y-85970342D01*
X225801904Y-85970342D02*
X225801904Y-85875104D01*
X225801904Y-85875104D02*
X225849523Y-85779866D01*
X225849523Y-85779866D02*
X225897142Y-85732247D01*
X225897142Y-85732247D02*
X225992380Y-85684628D01*
X225992380Y-85684628D02*
X226182856Y-85637009D01*
X226182856Y-85637009D02*
X226278094Y-85589390D01*
X226278094Y-85589390D02*
X226325713Y-85541771D01*
X226325713Y-85541771D02*
X226373332Y-85446533D01*
X226373332Y-85446533D02*
X226373332Y-85351295D01*
X226373332Y-85351295D02*
X226325713Y-85256057D01*
X226325713Y-85256057D02*
X226278094Y-85208438D01*
X226278094Y-85208438D02*
X226182856Y-85160819D01*
X226182856Y-85160819D02*
X225944761Y-85160819D01*
X225944761Y-85160819D02*
X225801904Y-85208438D01*
X225468570Y-85160819D02*
X225230475Y-86160819D01*
X225230475Y-86160819D02*
X225039999Y-85446533D01*
X225039999Y-85446533D02*
X224849523Y-86160819D01*
X224849523Y-86160819D02*
X224611428Y-85160819D01*
X224325713Y-85160819D02*
X223706666Y-85160819D01*
X223706666Y-85160819D02*
X224039999Y-85541771D01*
X224039999Y-85541771D02*
X223897142Y-85541771D01*
X223897142Y-85541771D02*
X223801904Y-85589390D01*
X223801904Y-85589390D02*
X223754285Y-85637009D01*
X223754285Y-85637009D02*
X223706666Y-85732247D01*
X223706666Y-85732247D02*
X223706666Y-85970342D01*
X223706666Y-85970342D02*
X223754285Y-86065580D01*
X223754285Y-86065580D02*
X223801904Y-86113200D01*
X223801904Y-86113200D02*
X223897142Y-86160819D01*
X223897142Y-86160819D02*
X224182856Y-86160819D01*
X224182856Y-86160819D02*
X224278094Y-86113200D01*
X224278094Y-86113200D02*
X224325713Y-86065580D01*
X226373332Y-67023200D02*
X226230475Y-67070819D01*
X226230475Y-67070819D02*
X225992380Y-67070819D01*
X225992380Y-67070819D02*
X225897142Y-67023200D01*
X225897142Y-67023200D02*
X225849523Y-66975580D01*
X225849523Y-66975580D02*
X225801904Y-66880342D01*
X225801904Y-66880342D02*
X225801904Y-66785104D01*
X225801904Y-66785104D02*
X225849523Y-66689866D01*
X225849523Y-66689866D02*
X225897142Y-66642247D01*
X225897142Y-66642247D02*
X225992380Y-66594628D01*
X225992380Y-66594628D02*
X226182856Y-66547009D01*
X226182856Y-66547009D02*
X226278094Y-66499390D01*
X226278094Y-66499390D02*
X226325713Y-66451771D01*
X226325713Y-66451771D02*
X226373332Y-66356533D01*
X226373332Y-66356533D02*
X226373332Y-66261295D01*
X226373332Y-66261295D02*
X226325713Y-66166057D01*
X226325713Y-66166057D02*
X226278094Y-66118438D01*
X226278094Y-66118438D02*
X226182856Y-66070819D01*
X226182856Y-66070819D02*
X225944761Y-66070819D01*
X225944761Y-66070819D02*
X225801904Y-66118438D01*
X225468570Y-66070819D02*
X225230475Y-67070819D01*
X225230475Y-67070819D02*
X225039999Y-66356533D01*
X225039999Y-66356533D02*
X224849523Y-67070819D01*
X224849523Y-67070819D02*
X224611428Y-66070819D01*
X224278094Y-66166057D02*
X224230475Y-66118438D01*
X224230475Y-66118438D02*
X224135237Y-66070819D01*
X224135237Y-66070819D02*
X223897142Y-66070819D01*
X223897142Y-66070819D02*
X223801904Y-66118438D01*
X223801904Y-66118438D02*
X223754285Y-66166057D01*
X223754285Y-66166057D02*
X223706666Y-66261295D01*
X223706666Y-66261295D02*
X223706666Y-66356533D01*
X223706666Y-66356533D02*
X223754285Y-66499390D01*
X223754285Y-66499390D02*
X224325713Y-67070819D01*
X224325713Y-67070819D02*
X223706666Y-67070819D01*
%TO.C,U1*%
D12*
X196841000Y-72842530D02*
X196841000Y-55842530D01*
X198841000Y-53843440D02*
X212641000Y-53843440D01*
X201241000Y-52418500D02*
X201241000Y-59771800D01*
X201241000Y-59771800D02*
X210241000Y-59771800D01*
X210241000Y-52418500D02*
X201241000Y-52418500D01*
X210241000Y-59771800D02*
X210241000Y-52418500D01*
X212641000Y-74842530D02*
X198841000Y-74842530D01*
X214641000Y-55842530D02*
X214641000Y-72842530D01*
D13*
X196841000Y-55842530D02*
G75*
G02*
X198841000Y-53842530I2044610J-44610D01*
G01*
X198841000Y-74842530D02*
G75*
G02*
X196841000Y-72842530I0J2000000D01*
G01*
X212641000Y-53842530D02*
G75*
G02*
X214641000Y-55842530I-44612J-2044612D01*
G01*
X214641000Y-72842530D02*
G75*
G02*
X212641000Y-74842530I-2044857J44857D01*
G01*
D14*
X216868000Y-55542530D02*
G75*
G02*
X216614000Y-55542530I-127000J0D01*
G01*
X216614000Y-55542530D02*
G75*
G02*
X216868000Y-55542530I127000J0D01*
G01*
D15*
X214625667Y-55732057D02*
X214628715Y-55780825D01*
X214621603Y-55683036D01*
X214625667Y-55732057D01*
X196898752Y-73253485D02*
X196888847Y-73205480D01*
X196879956Y-73157220D01*
X196872336Y-73108705D01*
X196865732Y-73059937D01*
X196860399Y-73011169D01*
X196856335Y-72962148D01*
X196853287Y-72913380D01*
X196851508Y-72864104D01*
X196898752Y-73253485D01*
%TO.C,SW1*%
D13*
X218055000Y-48595000D02*
X218055000Y-62565000D01*
X218055000Y-62565000D02*
X232025000Y-62565000D01*
X232025000Y-48595000D02*
X218055000Y-48595000D01*
X232025000Y-62565000D02*
X232025000Y-48595000D01*
%TO.C,SW3*%
X218055000Y-86595000D02*
X218055000Y-100565000D01*
X218055000Y-100565000D02*
X232025000Y-100565000D01*
X232025000Y-86595000D02*
X218055000Y-86595000D01*
X232025000Y-100565000D02*
X232025000Y-86595000D01*
%TO.C,SW2*%
X218055000Y-67505000D02*
X218055000Y-81475000D01*
X218055000Y-81475000D02*
X232025000Y-81475000D01*
X232025000Y-67505000D02*
X218055000Y-67505000D01*
X232025000Y-81475000D02*
X232025000Y-67505000D01*
%TD*%
M02*
