%TF.GenerationSoftware,KiCad,Pcbnew,10.0.1*%
%TF.CreationDate,2026-04-20T15:10:00+05:45*%
%TF.ProjectId,project,70726f6a-6563-4742-9e6b-696361645f70,rev?*%
%TF.SameCoordinates,Original*%
%TF.FileFunction,Copper,L2,Bot*%
%TF.FilePolarity,Positive*%
%FSLAX46Y46*%
G04 Gerber Fmt 4.6, Leading zero omitted, Abs format (unit mm)*
G04 Created by KiCad (PCBNEW 10.0.1) date 2026-04-20 15:10:00*
%MOMM*%
%LPD*%
G01*
G04 APERTURE LIST*
%TA.AperFunction,ComponentPad*%
%ADD10R,3.500000X1.700000*%
%TD*%
%TA.AperFunction,ComponentPad*%
%ADD11O,3.600000X1.700000*%
%TD*%
%TA.AperFunction,ComponentPad*%
%ADD12O,3.700000X1.700000*%
%TD*%
%TA.AperFunction,ComponentPad*%
%ADD13C,2.200000*%
%TD*%
%TA.AperFunction,Conductor*%
%ADD14C,0.200000*%
%TD*%
G04 APERTURE END LIST*
D10*
%TO.P,U1,1,PA02_A0_D0_1*%
%TO.N,unconnected-(U1-PA02_A0_D0-Pad1)*%
X214366000Y-56722530D03*
D11*
%TO.P,U1,2,PA4_A1_D1_2*%
%TO.N,unconnected-(U1-PA4_A1_D1-Pad2)*%
X214366000Y-59262530D03*
%TO.P,U1,3,PA10_A2_D2_3*%
%TO.N,unconnected-(U1-PA10_A2_D2-Pad3)*%
X214366000Y-61802530D03*
%TO.P,U1,4,PA11_A3_D3_4*%
%TO.N,unconnected-(U1-PA11_A3_D3-Pad4)*%
X214366000Y-64342530D03*
%TO.P,U1,5,PA8_A4_D4_SDA_5*%
%TO.N,unconnected-(U1-PA8_A4_D4_SDA-Pad5)*%
X214366000Y-66882530D03*
%TO.P,U1,6,PA9_A5_D5_SCL_6*%
%TO.N,unconnected-(U1-PA9_A5_D5_SCL-Pad6)*%
X214366000Y-69422530D03*
%TO.P,U1,7,PB08_A6_D6_TX_7*%
%TO.N,unconnected-(U1-PB08_A6_D6_TX-Pad7)*%
X214366000Y-71962530D03*
%TO.P,U1,8,PB09_A7_D7_RX_8*%
%TO.N,unconnected-(U1-PB09_A7_D7_RX-Pad8)*%
X197116000Y-71962530D03*
%TO.P,U1,9,PA7_A8_D8_SCK_9*%
%TO.N,Net-(U1-PA7_A8_D8_SCK)*%
X197116000Y-69422530D03*
%TO.P,U1,10,PA5_A9_D9_MISO_10*%
%TO.N,Net-(U1-PA5_A9_D9_MISO)*%
X197116000Y-66882530D03*
D12*
%TO.P,U1,11,PA6_A10_D10_MOSI_11*%
%TO.N,Net-(U1-PA6_A10_D10_MOSI)*%
X197116000Y-64342530D03*
%TO.P,U1,12,3V3_12*%
%TO.N,unconnected-(U1-3V3-Pad12)*%
X197116000Y-61802530D03*
%TO.P,U1,13,GND_13*%
%TO.N,GND*%
X197116000Y-59262530D03*
%TO.P,U1,14,5V_14*%
%TO.N,unconnected-(U1-5V-Pad14)*%
X197116000Y-56722530D03*
%TD*%
D13*
%TO.P,SW1,1,1_1*%
%TO.N,Net-(U1-PA6_A10_D10_MOSI)*%
X222500000Y-50500000D03*
%TO.P,SW1,2,2_2*%
%TO.N,GND*%
X228850000Y-53040000D03*
%TD*%
%TO.P,SW3,1,1_1*%
%TO.N,Net-(U1-PA7_A8_D8_SCK)*%
X222500000Y-88500000D03*
%TO.P,SW3,2,2_2*%
%TO.N,GND*%
X228850000Y-91040000D03*
%TD*%
%TO.P,SW2,1,1_1*%
%TO.N,Net-(U1-PA5_A9_D9_MISO)*%
X222500000Y-69410000D03*
%TO.P,SW2,2,2_2*%
%TO.N,GND*%
X228850000Y-71950000D03*
%TD*%
%TO.N,Net-(U1-PA7_A8_D8_SCK)*%
D14*
X199503470Y-70810000D02*
X220279899Y-70810000D01*
X222500000Y-73030101D02*
X220279899Y-70810000D01*
X198116000Y-69422530D02*
X199503470Y-70810000D01*
X222500000Y-88500000D02*
X222500000Y-73030101D01*
X221100000Y-69989899D02*
X221100000Y-69500000D01*
X220279899Y-70810000D02*
X221100000Y-69989899D01*
%TO.N,Net-(U1-PA5_A9_D9_MISO)*%
X221362530Y-68272530D02*
X222500000Y-69410000D01*
X198116000Y-66882530D02*
X199506000Y-68272530D01*
X199506000Y-68272530D02*
X221362530Y-68272530D01*
%TO.N,Net-(U1-PA6_A10_D10_MOSI)*%
X206204876Y-50500000D02*
X222500000Y-50500000D01*
X202046000Y-60412530D02*
X195639654Y-60412530D01*
X194966000Y-58786184D02*
X195639654Y-58112530D01*
X198116000Y-64342530D02*
X202046000Y-60412530D01*
X195639654Y-58112530D02*
X198592346Y-58112530D01*
X195639654Y-60412530D02*
X194966000Y-59738876D01*
X194966000Y-59738876D02*
X194966000Y-58786184D01*
X198592346Y-58112530D02*
X206204876Y-50500000D01*
%TO.N,GND*%
X198116000Y-59262530D02*
X204338530Y-53040000D01*
X204338530Y-53040000D02*
X228850000Y-53040000D01*
X228850000Y-53040000D02*
X228850000Y-91040000D01*
%TD*%
M02*
