M48
; DRILL file KiCad 10.0.1 date 2026-04-20T15:10:49
; FORMAT={-:-/ absolute / metric / decimal}
; #@! TF.CreationDate,2026-04-20T15:10:49+05:45
; #@! TF.GenerationSoftware,Kicad,Pcbnew,10.0.1
; #@! TF.FileFunction,Plated,1,2,PTH
FMAT,2
METRIC
; #@! TA.AperFunction,Plated,PTH,ComponentDrill
T1C1.000
; #@! TA.AperFunction,Plated,PTH,ComponentDrill
T2C1.500
%
G90
G05
T1
X198.116Y-56.723
X198.116Y-59.263
X198.116Y-61.803
X198.116Y-64.343
X198.116Y-66.883
X198.116Y-69.423
X198.116Y-71.963
X213.366Y-56.723
X213.366Y-59.263
X213.366Y-61.803
X213.366Y-64.343
X213.366Y-66.883
X213.366Y-69.423
X213.366Y-71.963
T2
X222.5Y-50.5
X222.5Y-69.41
X222.5Y-88.5
X228.85Y-53.04
X228.85Y-71.95
X228.85Y-91.04
M30
